<svg xmlns="http://www.w3.org/2000/svg" viewBox="0 0 3194.22 3053.37"><defs><style>.cls-1{fill:#9e0b0f;fill-rule:evenodd;}.cls-2{fill:#fff;}</style></defs><title>Box</title><g id="Layer_2" data-name="Layer 2"><g id="Logo"><g id="Group_2" data-name="Group 2"><g id="Rectangle_1" data-name="Rectangle 1"><polygon class="cls-1" points="50 2406.73 50 671.01 1547.1 1244.94 1547.1 2980.66 50 2406.73"/><path class="cls-2" d="M100,743.73l1397.1,535.59V2907.94L100,2372.35V743.73M0,598.3V2441.11l1597.1,612.26V1210.56L0,598.3Z"/></g><g id="Rectangle_1_copy" data-name="Rectangle 1 copy"><polygon class="cls-1" points="1645.87 1244.83 3142.97 671.01 3142.97 2406.38 1645.87 2980.2 1645.87 1244.83"/><path class="cls-2" d="M3093,743.72V2372l-1397.1,535.49V1279.21L3093,743.72M3193,598.3l-1597.1,612.15V3052.91L3193,2440.76V598.3Z"/></g><g id="Rectangle_2" data-name="Rectangle 2"><polygon class="cls-1" points="141.8 607.51 1597.71 53.5 3053.63 607.51 1597.71 1161.53 141.8 607.51"/><path class="cls-2" d="M1597.72,107,2913,607.51,1597.72,1108,282.39,607.51,1597.72,107m0-107L1.21,607.51,1597.72,1215,3194.22,607.51,1597.72,0Z"/></g></g></g></g></svg>