<svg xmlns="http://www.w3.org/2000/svg" viewBox="0 0 7999 2814.56"><defs><style>.cls-1{fill:#fff;fill-rule:evenodd;}</style></defs><title>Drone Full</title><g id="Layer_2" data-name="Layer 2"><g id="Logo"><g id="Group_1" data-name="Group 1"><g id="Ellipse_1" data-name="Ellipse 1"><path class="cls-1" d="M1855.59,831.66C823.72,874.76,0,1353.11,0,1895.41,0,2434,811,2843.18,1828.54,2812.74,2854.4,2782,3710.21,2313.63,3725.43,1762.05,3740.76,1206.37,2895.6,788.23,1855.59,831.66Zm22.22,1500.1c-837.61,0-1516.63-276.94-1516.63-618.57s679.63-752.48,1517.25-752.48,1516,410.85,1516,752.48S2715.42,2331.77,1877.81,2331.77Z"/></g><g id="Ellipse_1-2" data-name="Ellipse 1"><path class="cls-1" d="M6143.16,832.36C5103,788.93,4257.73,1207,4273.07,1762.53,4288.3,2314,5144.22,2782.28,6170.21,2813,7187.89,2843.41,7999,2434.31,7999,1895.85,7999,1353.68,7175.17,875.44,6143.16,832.36Zm-22.22,1499.76c-837.72,0-1516.84-276.88-1516.84-618.43s678.5-752.31,1516.22-752.31,1517.45,410.76,1517.45,752.31S6958.66,2332.11,6120.94,2332.11Z"/></g><g id="Ellipse_2" data-name="Ellipse 2"><path class="cls-1" d="M2742.7,0C2122.21,0,1619.2,185.64,1619.2,414.63s503,414.63,1123.5,414.63S3866.2,643.63,3866.2,414.63,3363.2,0,2742.7,0Zm14.13,643.75c-494,0-894.38-137.51-894.38-307.14S2262.88,29.48,2756.83,29.48,3651.21,167,3651.21,336.62,3250.78,643.75,2756.83,643.75Z"/></g><g id="Ellipse_2-2" data-name="Ellipse 2"><path class="cls-1" d="M5253.84,0c-620.49,0-1123.5,185.64-1123.5,414.63s503,414.63,1123.5,414.63,1123.5-185.64,1123.5-414.63S5874.33,0,5253.84,0Zm-14.13,643.75c-494,0-894.38-137.51-894.38-307.14S4745.76,29.48,5239.71,29.48,6134.09,167,6134.09,336.62,5733.66,643.75,5239.71,643.75Z"/></g></g></g></g></svg>